Coordinates
version=1
nRows=13
nColumns=22
inDegrees=yes

Units are S.I. units (second, meters, Newtons, ...)
If the header above contains a line with 'inDegrees', this indicates whether rotational values are in degrees (yes) or radians (no).

endheader
time	pelvis_tilt	pelvis_list	pelvis_rotation	pelvis_tx	pelvis_ty	pelvis_tz	hip_flexion_r	hip_adduction_r	hip_rotation_r	knee_angle_r	ankle_angle_r	subtalar_angle_r	hip_flexion_l	hip_adduction_l	hip_rotation_l	knee_angle_l	ankle_angle_l	subtalar_angle_l	lumbar_extension	lumbar_bending	lumbar_rotation
      1.58000000	    -11.04280828	      0.74622697	    -11.81506872	     -0.94895380	      0.87789494	      0.02407963	      9.31393658	     -5.58256369	      4.86709046	     -5.02937919	     11.97033240	      4.48406614	      7.76643247	     -5.77258980	    -12.20352715	     -9.98749249	     15.34671285	      5.17844413	      3.72549587	     -1.06432703	     12.78107582
      1.59000000	    -11.08233111	      0.80122083	    -11.85296131	     -0.94766786	      0.87761872	      0.02326389	      9.29296723	     -5.72234063	      4.88856319	     -5.02651570	     12.07473024	      4.70199645	      7.77767903	     -5.65534199	    -12.13183200	    -10.08744831	     15.51140574	      4.94258245	      3.82620029	     -1.07302919	     12.96066330
      1.60000000	    -11.09340106	      0.85001839	    -11.86302454	     -0.94628746	      0.87736965	      0.02233504	      9.22295515	     -5.87119481	      4.89433750	     -5.01018139	     12.17613463	      4.75998948	      7.77146485	     -5.53286163	    -12.05224084	    -10.21381661	     15.70204409	      4.88403942	      3.89913791	     -1.07696926	     13.11216749
      1.61000000	    -11.11120488	      0.93887386	    -11.86973852	     -0.94485622	      0.87709117	      0.02129298	      9.21863334	     -6.06734074	      4.87374562	     -5.09547328	     12.35742500	      5.01525875	      7.78753007	     -5.36022006	    -11.99092672	    -10.35510475	     15.83233531	      4.62401212	      3.99452078	     -1.11750859	     13.29282144
      1.62000000	    -11.12743173	      1.01178676	    -11.84419675	     -0.94328449	      0.87681457	      0.02011516	      9.18397719	     -6.26072720	      4.84299306	     -5.15800956	     12.49164932	      5.25155082	      7.77202784	     -5.18689351	    -11.85129409	    -10.44755677	     16.00452106	      4.40602346	      4.09882015	     -1.13233561	     13.44298272
      1.63000000	    -11.11122129	      1.09962166	    -11.79426015	     -0.94161406	      0.87656354	      0.01881192	      9.13609418	     -6.48390956	      4.79616650	     -5.27506809	     12.68583596	      5.36355714	      7.74225045	     -4.98563026	    -11.73832677	    -10.57613435	     16.16250623	      4.30567791	      4.17627288	     -1.16752177	     13.57690259
      1.64000000	    -11.09297139	      1.20285343	    -11.72324788	     -0.93984165	      0.87629979	      0.01737214	      9.11754696	     -6.73269231	      4.74131543	     -5.46434313	     12.91163574	      5.51154568	      7.69913302	     -4.75306808	    -11.59035837	    -10.67984198	     16.31843163	      4.17345653	      4.26458658	     -1.21487918	     13.70419659
      1.65000000	    -11.06265095	      1.31341229	    -11.63263686	     -0.93797446	      0.87603118	      0.01579213	      9.12100633	     -6.99934101	      4.68265394	     -5.73191086	     13.16697960	      5.66261340	      7.63993178	     -4.49739439	    -11.41976527	    -10.77975924	     16.48522823	      4.03657139	      4.34730848	     -1.26606233	     13.81532804
      1.66000000	    -11.02019439	      1.43206864	    -11.52064513	     -0.93603789	      0.87575417	      0.01406611	      9.16129790	     -7.28398851	      4.62151127	     -6.10441300	     13.46230381	      5.81907165	      7.56922513	     -4.21752007	    -11.22675113	    -10.87773147	     16.64806735	      3.88895876	      4.41972155	     -1.32453254	     13.91033493
      1.67000000	    -10.96319697	      1.55910465	    -11.38941824	     -0.93404175	      0.87546389	      0.01220023	      9.24862138	     -7.58626241	      4.56604105	     -6.60208953	     13.80306354	      5.97326598	      7.48479318	     -3.91429628	    -11.01490597	    -10.97735380	     16.81877126	      3.73445400	      4.47724917	     -1.39148586	     13.98286222
      1.68000000	    -10.92410632	      1.71664100	    -11.24613253	     -0.93201883	      0.87511140	      0.01018914	      9.44048277	     -7.92199715	      4.53717760	     -7.24970454	     14.15918980	      6.22077803	      7.41357431	     -3.56610395	    -10.77625437	    -11.05104218	     16.99657728	      3.47328953	      4.55923156	     -1.48286512	     14.02558143
      1.69000000	    -10.84038127	      1.86568138	    -11.09085374	     -0.92995200	      0.87477263	      0.00807577	      9.65844657	     -8.25835870	      4.50975702	     -8.04643377	     14.59723233	      6.37912799	      7.30463454	     -3.21293689	    -10.54290825	    -11.14976577	     17.19055063	      3.29262432	      4.58238774	     -1.57614825	     14.06544041
      1.70000000	    -10.74353806	      2.03186823	    -10.93051122	     -0.92788106	      0.87440292	      0.00585863	      9.96092372	     -8.61475759	      4.51481990	     -9.01761610	     15.07421351	      6.53397928	      7.18587745	     -2.83043191	    -10.30402487	    -11.24935895	     17.38554112	      3.11107523	      4.58526266	     -1.69163793	     14.09691644
